<svg width="26" height="26" viewBox="0 0 26 26" fill="none" xmlns="http://www.w3.org/2000/svg">
<path d="M7.54687 0C3.39062 0 0 3.39063 0 7.54688V18.4531C0 22.6094 3.39063 26 7.54688 26H18.4531C22.6094 26 26 22.6094 26 18.4531V7.54689C26 3.39064 22.6094 2e-05 18.4531 2e-05L7.54687 0ZM7.54687 2H18.4531C21.5273 2 24 4.46875 24 7.54688V18.4531C24 21.5273 21.5312 24 18.4531 24H7.54688C4.47266 24 2.00001 21.5313 2.00001 18.4531V7.54689C2.00001 4.47267 4.46874 2 7.54687 2ZM20.5 4C19.6719 4 19 4.67188 19 5.5C19 6.32813 19.6719 7 20.5 7C21.3281 7 22 6.32813 22 5.5C22 4.67188 21.3281 4 20.5 4ZM13 6C9.14452 6 5.99999 9.14453 5.99999 13C5.99999 16.8555 9.14452 20 13 20C16.8555 20 20 16.8555 20 13C20 9.14453 16.8555 6 13 6ZM13 8C15.7734 8 18 10.2266 18 13C18 15.7734 15.7734 18 13 18C10.2265 18 7.99999 15.7734 7.99999 13C7.99999 10.2266 10.2265 8 13 8Z" fill="white"/>
</svg>
