<svg width="26" height="26" viewBox="0 0 26 26" fill="none" xmlns="http://www.w3.org/2000/svg">
<path d="M13 0C5.827 0 0 5.827 0 13C0 20.173 5.827 26 13 26C20.173 26 26 20.173 26 13C26 5.827 20.173 0 13 0ZM13 1.13043C19.5621 1.13043 24.8696 6.43793 24.8696 13C24.8696 19.5621 19.5621 24.8696 13 24.8696C6.43793 24.8696 1.13043 19.5621 1.13043 13C1.13043 6.43793 6.43793 1.13043 13 1.13043ZM7.91304 5.65217C6.98326 5.65217 6.21739 6.41804 6.21739 7.34783C6.21739 8.27761 6.98326 9.04348 7.91304 9.04348C8.84283 9.04348 9.6087 8.27761 9.6087 7.34783C9.6087 6.41804 8.84283 5.65217 7.91304 5.65217ZM7.91304 6.78261C8.2319 6.78261 8.47826 7.02897 8.47826 7.34783C8.47826 7.66668 8.2319 7.91304 7.91304 7.91304C7.59419 7.91304 7.34783 7.66668 7.34783 7.34783C7.34783 7.02897 7.59419 6.78261 7.91304 6.78261ZM6.78261 9.6087C6.47046 9.60873 6.21743 9.86177 6.21739 10.1739V18.6522C6.21743 18.9643 6.47046 19.2174 6.78261 19.2174H9.04348C9.35562 19.2174 9.60866 18.9643 9.6087 18.6522V10.1739C9.60866 9.86177 9.35562 9.60873 9.04348 9.6087H6.78261ZM11.3043 9.6087C10.9922 9.60873 10.7392 9.86177 10.7391 10.1739V18.6522C10.7392 18.9643 10.9922 19.2174 11.3043 19.2174H13.5652C13.8774 19.2174 14.1304 18.9643 14.1304 18.6522V14.413C14.1304 13.6333 14.7637 13 15.5435 13C16.3232 13 16.9565 13.6333 16.9565 14.413V15.8261V18.6522C16.9566 18.9643 17.2096 19.2174 17.5217 19.2174H19.7826C20.0948 19.2174 20.3478 18.9643 20.3478 18.6522V13.8478C20.3478 11.5133 18.4433 9.6087 16.1087 9.6087C15.3816 9.6087 14.7294 9.84391 14.1304 10.1684C14.1274 9.8584 13.8752 9.60871 13.5652 9.6087H11.3043ZM7.34783 10.7391H8.47826V18.087H7.34783V10.7391ZM11.8696 10.7391H13V11.2006C13 11.4272 13.1354 11.6319 13.3439 11.7206C13.5524 11.8094 13.7938 11.765 13.9571 11.6079C14.5172 11.07 15.2703 10.7391 16.1087 10.7391C17.8324 10.7391 19.2174 12.1241 19.2174 13.8478V18.087H18.087V15.8261V14.413C18.087 13.0167 16.9398 11.8696 15.5435 11.8696C14.1471 11.8696 13 13.0167 13 14.413V18.087H11.8696V10.7391Z" fill="white"/>
</svg>
